<svg id="Layer_1" data-name="Layer 1" xmlns="http://www.w3.org/2000/svg" viewBox="0 0 140 43.22"><defs><style>.cls-1{fill:#b9bdc3;}</style></defs><path class="cls-1" d="M312.71,385.69a1.08,1.08,0,0,1-.41,1.6s-11.38,9.1-30.5,9.1a54.45,54.45,0,0,1-36.1-13.95s-.58-.51-.22-1c0,0,.32-.43,1.14,0a72.86,72.86,0,0,0,64.34,4S312.12,384.89,312.71,385.69Z" transform="translate(-209.54 -353.19)"/><path class="cls-1" d="M239.33,363.29V376.9a.82.82,0,0,1-.83.83h-4.27a.82.82,0,0,1-.83-.83V354.76a.82.82,0,0,1,.83-.83h4a.84.84,0,0,1,.58.24.82.82,0,0,1,.24.59v3.12s1.42-4.45,5.61-4.45a5.71,5.71,0,0,1,5.84,4.13s1.42-4.13,5.71-4.13c0,0,6.37-.38,6.37,6.25l0,3.66v13.6a.79.79,0,0,1-.24.59.81.81,0,0,1-.58.25h-4.28a.84.84,0,0,1-.83-.84l0-14.84c.12-3.36-2.58-3.12-2.58-3.12-3.41.06-3.08,4.36-3.08,4.36v13.6a.84.84,0,0,1-.83.84h-4.27a.84.84,0,0,1-.83-.84V362.43s.25-3.48-2.79-3.48C242.24,359,239.23,358.55,239.33,363.29Zm110.21,0v13.61a.83.83,0,0,1-.25.59.83.83,0,0,1-.58.24l-4.45.09a.79.79,0,0,1-.58-.25.81.81,0,0,1-.24-.59V362.43s.25-3.48-2.8-3.48c0,0-2.9-.14-2.9,5.32V376.9a.82.82,0,0,1-.83.83h-4.27a.82.82,0,0,1-.83-.83V354.76a.82.82,0,0,1,.83-.83h3.95a.82.82,0,0,1,.83.83v3.12s1.41-4.45,5.61-4.45a5.54,5.54,0,0,1,6,4S349.54,358.45,349.54,363.25Zm-30.87-9.91c-5.47,0-9.9,4.63-9.9,12.42,0,6.87,3.42,12.43,9.9,12.43,6.11,0,9.9-5.56,9.9-12.43C328.57,358.11,324.14,353.34,318.67,353.34Zm3.45,12.7a21.54,21.54,0,0,1-.37,4.49c-.52,3.1-2.76,3.11-3.09,3.09s-2.61,0-3.08-3.09a21.54,21.54,0,0,1-.37-4.49v-.49a21.54,21.54,0,0,1,.37-4.49c.47-3.07,2.73-3.11,3.08-3.09s2.57,0,3.09,3.09a21.54,21.54,0,0,1,.37,4.49Zm-15.83-8.19v-3.18a.83.83,0,0,0-.25-.59.83.83,0,0,0-.58-.24H291.33a.82.82,0,0,0-.83.83v3.15a.85.85,0,0,0,.24.59.83.83,0,0,0,.59.25h7.37L290,371.37a2.2,2.2,0,0,0-.33,1.09v3.87s-.06,1.33,1.44.56a14.65,14.65,0,0,1,7.12-1.62s4.4,0,7.34,1.75c0,0,1.22.56,1.22-.66V373s.11-.89-1.06-1.45a15.5,15.5,0,0,0-7.81-1.56ZM230.1,373.77l-1.34-2a3.5,3.5,0,0,1-.39-1.62v-9.44c.18-8.16-8.82-7.46-8.82-7.46-8,0-9.19,6.26-9.19,6.26-.33,1.26.64,1.29.64,1.29l3.91.4a.79.79,0,0,0,.91-.64,3.42,3.42,0,0,1,3.39-2.74,2.77,2.77,0,0,1,3.11,2.71v2.26c-6.26.21-9.16,2-9.16,2a7.5,7.5,0,0,0-3.62,6.57c0,7.12,6.75,6.81,6.75,6.81a9.43,9.43,0,0,0,6.88-3.18,12.77,12.77,0,0,0,2.16,2.63,1,1,0,0,0,1.43.12l3.16-2.72A.78.78,0,0,0,230.1,373.77Zm-11.7-.09c-2,0-2.79-2-2.45-4s2.09-3.56,6.37-3.51v1.21C222.47,372.65,220.09,373.68,218.4,373.68Zm68.52.09-1.34-2a3.44,3.44,0,0,1-.4-1.62v-9.44c.18-8.16-8.82-7.46-8.82-7.46-8,0-9.18,6.26-9.18,6.26-.34,1.26.63,1.29.63,1.29l3.91.4a.79.79,0,0,0,.91-.64,3.44,3.44,0,0,1,3.4-2.74,2.77,2.77,0,0,1,3.1,2.71v2.26c-6.26.21-9.16,2-9.16,2a7.48,7.48,0,0,0-3.61,6.57c0,7.12,6.75,6.81,6.75,6.81A9.39,9.39,0,0,0,280,374.9a12.77,12.77,0,0,0,2.16,2.63,1,1,0,0,0,1.43.12l3.16-2.72A.79.79,0,0,0,286.92,373.77Zm-11.71-.09c-2,0-2.78-2-2.44-4s2.09-3.56,6.36-3.51v1.21C279.28,372.65,276.91,373.68,275.21,373.68Z" transform="translate(-209.54 -353.19)"/></svg>